<mxfile host="app.diagrams.net" modified="2023-07-25T03:49:26.747Z" agent="Mozilla/5.0 (Macintosh; Intel Mac OS X 10_15_7) AppleWebKit/537.36 (KHTML, like Gecko) Chrome/114.0.0.0 Safari/537.36" etag="OMHOTUapW80WTl4nIi-D" version="21.6.5" type="google">
  <diagram name="PÃ¡gina-1" id="AOWjVfuuymzK9WzaGPJb">
    <mxGraphModel grid="1" page="0" gridSize="30" guides="1" tooltips="1" connect="1" arrows="1" fold="1" pageScale="1" pageWidth="827" pageHeight="1169" math="0" shadow="0">
      <root>
        <mxCell id="0" />
        <mxCell id="1" parent="0" />
        <mxCell id="TaZfclUyUQdigSKBhK0k-15" value="Owner" style="whiteSpace=wrap;html=1;align=center;" vertex="1" parent="1">
          <mxGeometry x="-145" y="-1420" width="100" height="40" as="geometry" />
        </mxCell>
        <mxCell id="TaZfclUyUQdigSKBhK0k-16" value="Pet" style="whiteSpace=wrap;html=1;align=center;" vertex="1" parent="1">
          <mxGeometry x="655" y="-1460" width="100" height="40" as="geometry" />
        </mxCell>
        <mxCell id="TaZfclUyUQdigSKBhK0k-18" value="Vet" style="whiteSpace=wrap;html=1;align=center;" vertex="1" parent="1">
          <mxGeometry x="-160" y="-970" width="100" height="40" as="geometry" />
        </mxCell>
        <mxCell id="TaZfclUyUQdigSKBhK0k-19" value="phone" style="ellipse;whiteSpace=wrap;html=1;align=center;" vertex="1" parent="1">
          <mxGeometry x="-360" y="-1310" width="100" height="40" as="geometry" />
        </mxCell>
        <mxCell id="TaZfclUyUQdigSKBhK0k-20" value="identification_card" style="ellipse;whiteSpace=wrap;html=1;align=center;" vertex="1" parent="1">
          <mxGeometry x="-360" y="-1420" width="100" height="40" as="geometry" />
        </mxCell>
        <mxCell id="TaZfclUyUQdigSKBhK0k-21" value="address" style="ellipse;whiteSpace=wrap;html=1;align=center;" vertex="1" parent="1">
          <mxGeometry x="-60" y="-1290" width="100" height="40" as="geometry" />
        </mxCell>
        <mxCell id="TaZfclUyUQdigSKBhK0k-22" value="ownerID" style="ellipse;whiteSpace=wrap;html=1;align=center;" vertex="1" parent="1">
          <mxGeometry x="-60" y="-1530" width="100" height="40" as="geometry" />
        </mxCell>
        <mxCell id="TaZfclUyUQdigSKBhK0k-23" value="name" style="ellipse;whiteSpace=wrap;html=1;align=center;" vertex="1" parent="1">
          <mxGeometry x="-305" y="-1520" width="100" height="40" as="geometry" />
        </mxCell>
        <mxCell id="TaZfclUyUQdigSKBhK0k-24" value="" style="endArrow=none;html=1;rounded=0;entryX=0.68;entryY=0.05;entryDx=0;entryDy=0;entryPerimeter=0;" edge="1" parent="1" source="TaZfclUyUQdigSKBhK0k-23" target="TaZfclUyUQdigSKBhK0k-15">
          <mxGeometry relative="1" as="geometry">
            <mxPoint x="-225" y="-1440" as="sourcePoint" />
            <mxPoint x="-65" y="-1440" as="targetPoint" />
          </mxGeometry>
        </mxCell>
        <mxCell id="TaZfclUyUQdigSKBhK0k-25" value="" style="endArrow=none;html=1;rounded=0;" edge="1" parent="1" source="TaZfclUyUQdigSKBhK0k-15" target="TaZfclUyUQdigSKBhK0k-21">
          <mxGeometry relative="1" as="geometry">
            <mxPoint x="-105" y="-1370" as="sourcePoint" />
            <mxPoint x="55" y="-1370" as="targetPoint" />
          </mxGeometry>
        </mxCell>
        <mxCell id="TaZfclUyUQdigSKBhK0k-26" value="" style="endArrow=none;html=1;rounded=0;" edge="1" parent="1" source="TaZfclUyUQdigSKBhK0k-15" target="TaZfclUyUQdigSKBhK0k-20">
          <mxGeometry relative="1" as="geometry">
            <mxPoint x="-75" y="-1380" as="sourcePoint" />
            <mxPoint x="7.587044098630258" y="-1413.650050548924" as="targetPoint" />
          </mxGeometry>
        </mxCell>
        <mxCell id="TaZfclUyUQdigSKBhK0k-27" value="" style="endArrow=none;html=1;rounded=0;entryX=0.5;entryY=1;entryDx=0;entryDy=0;" edge="1" parent="1" source="TaZfclUyUQdigSKBhK0k-19" target="TaZfclUyUQdigSKBhK0k-15">
          <mxGeometry relative="1" as="geometry">
            <mxPoint x="-155" y="-1290" as="sourcePoint" />
            <mxPoint x="5" y="-1290" as="targetPoint" />
          </mxGeometry>
        </mxCell>
        <mxCell id="TaZfclUyUQdigSKBhK0k-28" value="" style="endArrow=none;html=1;rounded=0;" edge="1" parent="1" source="TaZfclUyUQdigSKBhK0k-31" target="TaZfclUyUQdigSKBhK0k-16">
          <mxGeometry relative="1" as="geometry">
            <mxPoint x="629.8574387115577" y="-1387.3533062703325" as="sourcePoint" />
            <mxPoint x="675" y="-1430.5" as="targetPoint" />
          </mxGeometry>
        </mxCell>
        <mxCell id="TaZfclUyUQdigSKBhK0k-29" value="" style="endArrow=none;html=1;rounded=0;" edge="1" parent="1" source="TaZfclUyUQdigSKBhK0k-15" target="TaZfclUyUQdigSKBhK0k-22">
          <mxGeometry relative="1" as="geometry">
            <mxPoint x="-95" y="-1450" as="sourcePoint" />
            <mxPoint x="65" y="-1450" as="targetPoint" />
          </mxGeometry>
        </mxCell>
        <mxCell id="TaZfclUyUQdigSKBhK0k-30" value="" style="endArrow=none;html=1;rounded=0;exitX=0.24;exitY=0.925;exitDx=0;exitDy=0;exitPerimeter=0;entryX=0.75;entryY=1;entryDx=0;entryDy=0;" edge="1" parent="1" source="TaZfclUyUQdigSKBhK0k-32" target="TaZfclUyUQdigSKBhK0k-16">
          <mxGeometry relative="1" as="geometry">
            <mxPoint x="715" y="-1330.5" as="sourcePoint" />
            <mxPoint x="875" y="-1330.5" as="targetPoint" />
          </mxGeometry>
        </mxCell>
        <mxCell id="TaZfclUyUQdigSKBhK0k-31" value="pet_type" style="ellipse;whiteSpace=wrap;html=1;align=center;" vertex="1" parent="1">
          <mxGeometry x="555" y="-1360" width="100" height="40" as="geometry" />
        </mxCell>
        <mxCell id="TaZfclUyUQdigSKBhK0k-32" value="race" style="ellipse;whiteSpace=wrap;html=1;align=center;" vertex="1" parent="1">
          <mxGeometry x="755" y="-1360" width="100" height="40" as="geometry" />
        </mxCell>
        <mxCell id="TaZfclUyUQdigSKBhK0k-33" value="age" style="ellipse;whiteSpace=wrap;html=1;align=center;" vertex="1" parent="1">
          <mxGeometry x="795" y="-1430" width="100" height="40" as="geometry" />
        </mxCell>
        <mxCell id="TaZfclUyUQdigSKBhK0k-34" value="name" style="ellipse;whiteSpace=wrap;html=1;align=center;" vertex="1" parent="1">
          <mxGeometry x="575" y="-1510" width="100" height="40" as="geometry" />
        </mxCell>
        <mxCell id="TaZfclUyUQdigSKBhK0k-35" value="owner" style="ellipse;whiteSpace=wrap;html=1;align=center;" vertex="1" parent="1">
          <mxGeometry x="795" y="-1520" width="100" height="40" as="geometry" />
        </mxCell>
        <mxCell id="TaZfclUyUQdigSKBhK0k-36" value="" style="endArrow=none;html=1;rounded=0;" edge="1" parent="1" source="TaZfclUyUQdigSKBhK0k-34" target="TaZfclUyUQdigSKBhK0k-16">
          <mxGeometry relative="1" as="geometry">
            <mxPoint x="545" y="-1431" as="sourcePoint" />
            <mxPoint x="705" y="-1431" as="targetPoint" />
          </mxGeometry>
        </mxCell>
        <mxCell id="TaZfclUyUQdigSKBhK0k-37" value="" style="endArrow=none;html=1;rounded=0;" edge="1" parent="1" source="TaZfclUyUQdigSKBhK0k-16" target="TaZfclUyUQdigSKBhK0k-33">
          <mxGeometry relative="1" as="geometry">
            <mxPoint x="675" y="-1350" as="sourcePoint" />
            <mxPoint x="835" y="-1350" as="targetPoint" />
          </mxGeometry>
        </mxCell>
        <mxCell id="TaZfclUyUQdigSKBhK0k-38" value="" style="endArrow=none;html=1;rounded=0;" edge="1" parent="1" source="TaZfclUyUQdigSKBhK0k-16" target="TaZfclUyUQdigSKBhK0k-35">
          <mxGeometry relative="1" as="geometry">
            <mxPoint x="675" y="-1490.5" as="sourcePoint" />
            <mxPoint x="835" y="-1490.5" as="targetPoint" />
          </mxGeometry>
        </mxCell>
        <mxCell id="TaZfclUyUQdigSKBhK0k-39" value="" style="endArrow=none;html=1;rounded=0;" edge="1" parent="1" source="TaZfclUyUQdigSKBhK0k-43" target="TaZfclUyUQdigSKBhK0k-18">
          <mxGeometry relative="1" as="geometry">
            <mxPoint x="-250" y="-931" as="sourcePoint" />
            <mxPoint x="-90" y="-931" as="targetPoint" />
          </mxGeometry>
        </mxCell>
        <mxCell id="TaZfclUyUQdigSKBhK0k-40" value="" style="endArrow=none;html=1;rounded=0;" edge="1" parent="1" source="TaZfclUyUQdigSKBhK0k-18" target="TaZfclUyUQdigSKBhK0k-45">
          <mxGeometry relative="1" as="geometry">
            <mxPoint x="-110" y="-1020" as="sourcePoint" />
            <mxPoint x="50" y="-1020" as="targetPoint" />
          </mxGeometry>
        </mxCell>
        <mxCell id="TaZfclUyUQdigSKBhK0k-41" value="" style="endArrow=none;html=1;rounded=0;entryX=0;entryY=0.5;entryDx=0;entryDy=0;" edge="1" parent="1" source="TaZfclUyUQdigSKBhK0k-15" target="TaZfclUyUQdigSKBhK0k-53">
          <mxGeometry relative="1" as="geometry">
            <mxPoint x="99" y="-1460" as="sourcePoint" />
            <mxPoint x="259" y="-1460" as="targetPoint" />
          </mxGeometry>
        </mxCell>
        <mxCell id="TaZfclUyUQdigSKBhK0k-42" value="age" style="ellipse;whiteSpace=wrap;html=1;align=center;" vertex="1" parent="1">
          <mxGeometry x="-30" y="-930" width="100" height="40" as="geometry" />
        </mxCell>
        <mxCell id="TaZfclUyUQdigSKBhK0k-43" value="name" style="ellipse;whiteSpace=wrap;html=1;align=center;" vertex="1" parent="1">
          <mxGeometry x="-260" y="-910" width="100" height="40" as="geometry" />
        </mxCell>
        <mxCell id="TaZfclUyUQdigSKBhK0k-44" value="experience" style="ellipse;whiteSpace=wrap;html=1;align=center;" vertex="1" parent="1">
          <mxGeometry x="-160" y="-860" width="100" height="40" as="geometry" />
        </mxCell>
        <mxCell id="TaZfclUyUQdigSKBhK0k-45" value="vetID" style="ellipse;whiteSpace=wrap;html=1;align=center;" vertex="1" parent="1">
          <mxGeometry x="-70" y="-1050" width="100" height="40" as="geometry" />
        </mxCell>
        <mxCell id="TaZfclUyUQdigSKBhK0k-46" value="professional_licence" style="ellipse;whiteSpace=wrap;html=1;align=center;" vertex="1" parent="1">
          <mxGeometry x="-295" y="-1050" width="135" height="40" as="geometry" />
        </mxCell>
        <mxCell id="TaZfclUyUQdigSKBhK0k-51" value="" style="endArrow=none;html=1;rounded=0;" edge="1" parent="1" source="TaZfclUyUQdigSKBhK0k-18" target="TaZfclUyUQdigSKBhK0k-42">
          <mxGeometry relative="1" as="geometry">
            <mxPoint x="-40" y="-980" as="sourcePoint" />
            <mxPoint x="120" y="-980" as="targetPoint" />
          </mxGeometry>
        </mxCell>
        <mxCell id="TaZfclUyUQdigSKBhK0k-52" value="" style="endArrow=none;html=1;rounded=0;" edge="1" parent="1" source="TaZfclUyUQdigSKBhK0k-46" target="TaZfclUyUQdigSKBhK0k-18">
          <mxGeometry relative="1" as="geometry">
            <mxPoint x="-260" y="-990" as="sourcePoint" />
            <mxPoint x="-100" y="-990" as="targetPoint" />
          </mxGeometry>
        </mxCell>
        <mxCell id="TaZfclUyUQdigSKBhK0k-53" value="has" style="shape=rhombus;perimeter=rhombusPerimeter;whiteSpace=wrap;html=1;align=center;" vertex="1" parent="1">
          <mxGeometry x="259" y="-1490" width="120" height="60" as="geometry" />
        </mxCell>
        <mxCell id="TaZfclUyUQdigSKBhK0k-54" value="" style="endArrow=none;html=1;rounded=0;" edge="1" parent="1" source="TaZfclUyUQdigSKBhK0k-18" target="TaZfclUyUQdigSKBhK0k-44">
          <mxGeometry relative="1" as="geometry">
            <mxPoint x="-130" y="-880.5" as="sourcePoint" />
            <mxPoint x="30" y="-880.5" as="targetPoint" />
          </mxGeometry>
        </mxCell>
        <mxCell id="TaZfclUyUQdigSKBhK0k-59" value="attention" style="shape=rhombus;perimeter=rhombusPerimeter;whiteSpace=wrap;html=1;align=center;" vertex="1" parent="1">
          <mxGeometry x="655" y="-990" width="120" height="60" as="geometry" />
        </mxCell>
        <mxCell id="TaZfclUyUQdigSKBhK0k-63" value="" style="endArrow=none;html=1;rounded=0;exitX=1;exitY=0.5;exitDx=0;exitDy=0;" edge="1" parent="1" source="TaZfclUyUQdigSKBhK0k-53" target="TaZfclUyUQdigSKBhK0k-16">
          <mxGeometry relative="1" as="geometry">
            <mxPoint x="370.96000000000004" y="-1448.0700000000002" as="sourcePoint" />
            <mxPoint x="655" y="-1431.9309771284875" as="targetPoint" />
          </mxGeometry>
        </mxCell>
        <mxCell id="TaZfclUyUQdigSKBhK0k-67" value="*" style="edgeLabel;html=1;align=center;verticalAlign=middle;resizable=0;points=[];fontStyle=1;fontSize=84;" connectable="0" vertex="1" parent="TaZfclUyUQdigSKBhK0k-63">
          <mxGeometry x="0.1452" y="1" relative="1" as="geometry">
            <mxPoint y="11" as="offset" />
          </mxGeometry>
        </mxCell>
        <mxCell id="TaZfclUyUQdigSKBhK0k-64" value="" style="endArrow=none;html=1;rounded=0;entryX=0.5;entryY=0;entryDx=0;entryDy=0;" edge="1" parent="1" source="TaZfclUyUQdigSKBhK0k-16" target="TaZfclUyUQdigSKBhK0k-59">
          <mxGeometry relative="1" as="geometry">
            <mxPoint x="575" y="-1250" as="sourcePoint" />
            <mxPoint x="735" y="-1250" as="targetPoint" />
            <Array as="points">
              <mxPoint x="715" y="-1260" />
              <mxPoint x="715" y="-1290" />
            </Array>
          </mxGeometry>
        </mxCell>
        <mxCell id="TaZfclUyUQdigSKBhK0k-73" value="*" style="edgeLabel;html=1;align=center;verticalAlign=middle;resizable=0;points=[];fontSize=87;" connectable="0" vertex="1" parent="TaZfclUyUQdigSKBhK0k-64">
          <mxGeometry x="-0.2542" y="1" relative="1" as="geometry">
            <mxPoint as="offset" />
          </mxGeometry>
        </mxCell>
        <mxCell id="TaZfclUyUQdigSKBhK0k-66" value="" style="endArrow=none;html=1;rounded=0;entryX=0.083;entryY=0.5;entryDx=0;entryDy=0;exitX=1;exitY=0.25;exitDx=0;exitDy=0;entryPerimeter=0;" edge="1" parent="1" source="TaZfclUyUQdigSKBhK0k-18" target="TaZfclUyUQdigSKBhK0k-59">
          <mxGeometry relative="1" as="geometry">
            <mxPoint x="295" y="-990" as="sourcePoint" />
            <mxPoint x="625" y="-1010" as="targetPoint" />
          </mxGeometry>
        </mxCell>
      </root>
    </mxGraphModel>
  </diagram>
</mxfile>
